STARTFONT 2.1
FONT -misc-abc80-medium-r-normal--19-192-75-75-m-180-LUXOR-1
SIZE 20 78 78
FONTBOUNDINGBOX 18 20 0 -6
STARTPROPERTIES 22
FONT_ASCENT 14
FONT_DESCENT 6
DEFAULT_CHAR 32
RESOLUTION 78
POINT_SIZE 192
FONT "abc80"
FULL_NAME "abc80"
CHARSET_ENCODING "1"
CHARSET_REGISTRY "LUXOR"
AVERAGE_WIDTH 180
SPACING "m"
RESOLUTION_X 75
RESOLUTION_Y 75
PIXEL_SIZE 19
ADD_STYLE_NAME ""
SLANT "R"
SETWIDTH_NAME "Normal"
WEIGHT_NAME "Medium"
FOUNDRY "Misc"
FAMILY_NAME "ABC80"
FONTNAME_REGISTRY ""
COPYRIGHT "Public domain font.  Share and enjoy."
ENDPROPERTIES
CHARS 96
STARTCHAR <unknown>
ENCODING 32
SWIDTH 461 0
DWIDTH 18 0
BBX 18 20 0 -6
BITMAP
000000
000000
000000
000000
000000
000000
000000
000000
000000
000000
000000
000000
000000
000000
000000
000000
000000
000000
000000
000000
ENDCHAR
STARTCHAR <unknown>
ENCODING 33
SWIDTH 461 0
DWIDTH 18 0
BBX 18 20 0 -6
BITMAP
007000
007000
007000
007000
007000
007000
007000
007000
007000
007000
000000
000000
007000
007000
000000
000000
000000
000000
000000
000000
ENDCHAR
STARTCHAR <unknown>
ENCODING 34
SWIDTH 461 0
DWIDTH 18 0
BBX 18 20 0 -6
BITMAP
038e00
038e00
038e00
038e00
038e00
038e00
000000
000000
000000
000000
000000
000000
000000
000000
000000
000000
000000
000000
000000
000000
ENDCHAR
STARTCHAR <unknown>
ENCODING 35
SWIDTH 461 0
DWIDTH 18 0
BBX 18 20 0 -6
BITMAP
038e00
038e00
038e00
038e00
1fffc0
1fffc0
038e00
038e00
1fffc0
1fffc0
038e00
038e00
038e00
038e00
000000
000000
000000
000000
000000
000000
ENDCHAR
STARTCHAR <unknown>
ENCODING 36
SWIDTH 461 0
DWIDTH 18 0
BBX 18 20 0 -6
BITMAP
000000
000000
000000
000000
1c01c0
1c01c0
03fe00
03fe00
038e00
038e00
03fe00
03fe00
1c01c0
1c01c0
000000
000000
000000
000000
000000
000000
ENDCHAR
STARTCHAR <unknown>
ENCODING 37
SWIDTH 461 0
DWIDTH 18 0
BBX 18 20 0 -6
BITMAP
1f8000
1f8000
1f81c0
1f81c0
000e00
000e00
007000
007000
038000
038000
1c0fc0
1c0fc0
000fc0
000fc0
000000
000000
000000
000000
000000
000000
ENDCHAR
STARTCHAR <unknown>
ENCODING 38
SWIDTH 461 0
DWIDTH 18 0
BBX 18 20 0 -6
BITMAP
007000
007000
038e00
038e00
038e00
038e00
03f000
03f000
1c71c0
1c71c0
1c0e00
1c0e00
03f1c0
03f1c0
000000
000000
000000
000000
000000
000000
ENDCHAR
STARTCHAR <unknown>
ENCODING 39
SWIDTH 461 0
DWIDTH 18 0
BBX 18 20 0 -6
BITMAP
007000
007000
007000
007000
038000
038000
000000
000000
000000
000000
000000
000000
000000
000000
000000
000000
000000
000000
000000
000000
ENDCHAR
STARTCHAR <unknown>
ENCODING 40
SWIDTH 461 0
DWIDTH 18 0
BBX 18 20 0 -6
BITMAP
000e00
000e00
007000
007000
038000
038000
038000
038000
038000
038000
007000
007000
000e00
000e00
000000
000000
000000
000000
000000
000000
ENDCHAR
STARTCHAR <unknown>
ENCODING 41
SWIDTH 461 0
DWIDTH 18 0
BBX 18 20 0 -6
BITMAP
038000
038000
007000
007000
000e00
000e00
000e00
000e00
000e00
000e00
007000
007000
038000
038000
000000
000000
000000
000000
000000
000000
ENDCHAR
STARTCHAR <unknown>
ENCODING 42
SWIDTH 461 0
DWIDTH 18 0
BBX 18 20 0 -6
BITMAP
007000
007000
1c71c0
1c71c0
03fe00
03fe00
007000
007000
03fe00
03fe00
1c71c0
1c71c0
007000
007000
000000
000000
000000
000000
000000
000000
ENDCHAR
STARTCHAR <unknown>
ENCODING 43
SWIDTH 461 0
DWIDTH 18 0
BBX 18 20 0 -6
BITMAP
000000
000000
007000
007000
007000
007000
1fffc0
1fffc0
007000
007000
007000
007000
000000
000000
000000
000000
000000
000000
000000
000000
ENDCHAR
STARTCHAR <unknown>
ENCODING 44
SWIDTH 461 0
DWIDTH 18 0
BBX 18 20 0 -6
BITMAP
000000
000000
000000
000000
000000
000000
000000
000000
000000
000000
007000
007000
007000
007000
038000
038000
000000
000000
000000
000000
ENDCHAR
STARTCHAR <unknown>
ENCODING 45
SWIDTH 461 0
DWIDTH 18 0
BBX 18 20 0 -6
BITMAP
000000
000000
000000
000000
000000
000000
1fffc0
1fffc0
000000
000000
000000
000000
000000
000000
000000
000000
000000
000000
000000
000000
ENDCHAR
STARTCHAR <unknown>
ENCODING 46
SWIDTH 461 0
DWIDTH 18 0
BBX 18 20 0 -6
BITMAP
000000
000000
000000
000000
000000
000000
000000
000000
000000
000000
03f000
03f000
03f000
03f000
000000
000000
000000
000000
000000
000000
ENDCHAR
STARTCHAR <unknown>
ENCODING 47
SWIDTH 461 0
DWIDTH 18 0
BBX 18 20 0 -6
BITMAP
000000
000000
0001c0
0001c0
000e00
000e00
007000
007000
038000
038000
1c0000
1c0000
000000
000000
000000
000000
000000
000000
000000
000000
ENDCHAR
STARTCHAR <unknown>
ENCODING 48
SWIDTH 461 0
DWIDTH 18 0
BBX 18 20 0 -6
BITMAP
03fe00
03fe00
1c01c0
1c01c0
1c01c0
1c01c0
1c71c0
1c71c0
1c01c0
1c01c0
1c01c0
1c01c0
03fe00
03fe00
000000
000000
000000
000000
000000
000000
ENDCHAR
STARTCHAR <unknown>
ENCODING 49
SWIDTH 461 0
DWIDTH 18 0
BBX 18 20 0 -6
BITMAP
007000
007000
03f000
03f000
007000
007000
007000
007000
007000
007000
007000
007000
03fe00
03fe00
000000
000000
000000
000000
000000
000000
ENDCHAR
STARTCHAR <unknown>
ENCODING 50
SWIDTH 461 0
DWIDTH 18 0
BBX 18 20 0 -6
BITMAP
03fe00
03fe00
1c01c0
1c01c0
0001c0
0001c0
007e00
007e00
038000
038000
1c0000
1c0000
1fffc0
1fffc0
000000
000000
000000
000000
000000
000000
ENDCHAR
STARTCHAR <unknown>
ENCODING 51
SWIDTH 461 0
DWIDTH 18 0
BBX 18 20 0 -6
BITMAP
1fffc0
1fffc0
0001c0
0001c0
000e00
000e00
007e00
007e00
0001c0
0001c0
1c01c0
1c01c0
03fe00
03fe00
000000
000000
000000
000000
000000
000000
ENDCHAR
STARTCHAR <unknown>
ENCODING 52
SWIDTH 461 0
DWIDTH 18 0
BBX 18 20 0 -6
BITMAP
000e00
000e00
007e00
007e00
038e00
038e00
1c0e00
1c0e00
1fffc0
1fffc0
000e00
000e00
000e00
000e00
000000
000000
000000
000000
000000
000000
ENDCHAR
STARTCHAR <unknown>
ENCODING 53
SWIDTH 461 0
DWIDTH 18 0
BBX 18 20 0 -6
BITMAP
1fffc0
1fffc0
1c0000
1c0000
1ffe00
1ffe00
0001c0
0001c0
1c01c0
1c01c0
1c01c0
1c01c0
03fe00
03fe00
000000
000000
000000
000000
000000
000000
ENDCHAR
STARTCHAR <unknown>
ENCODING 54
SWIDTH 461 0
DWIDTH 18 0
BBX 18 20 0 -6
BITMAP
007fc0
007fc0
038000
038000
1c0000
1c0000
1ffe00
1ffe00
1c01c0
1c01c0
1c01c0
1c01c0
03fe00
03fe00
000000
000000
000000
000000
000000
000000
ENDCHAR
STARTCHAR <unknown>
ENCODING 55
SWIDTH 461 0
DWIDTH 18 0
BBX 18 20 0 -6
BITMAP
1fffc0
1fffc0
0001c0
0001c0
000e00
000e00
007000
007000
038000
038000
038000
038000
038000
038000
000000
000000
000000
000000
000000
000000
ENDCHAR
STARTCHAR <unknown>
ENCODING 56
SWIDTH 461 0
DWIDTH 18 0
BBX 18 20 0 -6
BITMAP
03fe00
03fe00
1c01c0
1c01c0
1c01c0
1c01c0
03fe00
03fe00
1c01c0
1c01c0
1c01c0
1c01c0
03fe00
03fe00
000000
000000
000000
000000
000000
000000
ENDCHAR
STARTCHAR <unknown>
ENCODING 57
SWIDTH 461 0
DWIDTH 18 0
BBX 18 20 0 -6
BITMAP
03fe00
03fe00
1c01c0
1c01c0
1c01c0
1c01c0
03ffc0
03ffc0
0001c0
0001c0
000e00
000e00
1ff000
1ff000
000000
000000
000000
000000
000000
000000
ENDCHAR
STARTCHAR <unknown>
ENCODING 58
SWIDTH 461 0
DWIDTH 18 0
BBX 18 20 0 -6
BITMAP
000000
000000
000000
000000
000000
000000
038000
038000
000000
000000
000000
000000
038000
038000
000000
000000
000000
000000
000000
000000
ENDCHAR
STARTCHAR <unknown>
ENCODING 59
SWIDTH 461 0
DWIDTH 18 0
BBX 18 20 0 -6
BITMAP
000000
000000
000000
000000
038000
038000
000000
000000
000000
038000
038000
038000
038000
1c0000
1c0000
000000
000000
000000
000000
000000
ENDCHAR
STARTCHAR <unknown>
ENCODING 60
SWIDTH 461 0
DWIDTH 18 0
BBX 18 20 0 -6
BITMAP
000e00
000e00
007000
007000
038000
038000
1c0000
1c0000
038000
038000
007000
007000
000e00
000e00
000000
000000
000000
000000
000000
000000
ENDCHAR
STARTCHAR <unknown>
ENCODING 61
SWIDTH 461 0
DWIDTH 18 0
BBX 18 20 0 -6
BITMAP
000000
000000
000000
000000
1fffc0
1fffc0
000000
000000
1fffc0
1fffc0
000000
000000
000000
000000
000000
000000
000000
000000
000000
000000
ENDCHAR
STARTCHAR <unknown>
ENCODING 62
SWIDTH 461 0
DWIDTH 18 0
BBX 18 20 0 -6
BITMAP
1c0000
1c0000
038000
038000
007000
007000
000e00
000e00
007000
007000
038000
038000
1c0000
1c0000
000000
000000
000000
000000
000000
000000
ENDCHAR
STARTCHAR <unknown>
ENCODING 63
SWIDTH 461 0
DWIDTH 18 0
BBX 18 20 0 -6
BITMAP
03fe00
03fe00
1c01c0
1c01c0
0001c0
0001c0
000e00
000e00
007000
007000
000000
000000
007000
007000
000000
000000
000000
000000
000000
000000
ENDCHAR
STARTCHAR <unknown>
ENCODING 64
SWIDTH 461 0
DWIDTH 18 0
BBX 18 20 0 -6
BITMAP
000e00
000e00
007000
007000
1fffc0
1fffc0
1c0000
1c0000
1ffe00
1ffe00
1c0000
1c0000
1fffc0
1fffc0
000000
000000
000000
000000
000000
000000
ENDCHAR
STARTCHAR <unknown>
ENCODING 65
SWIDTH 461 0
DWIDTH 18 0
BBX 18 20 0 -6
BITMAP
007000
007000
038e00
038e00
1c01c0
1c01c0
1fffc0
1fffc0
1c01c0
1c01c0
1c01c0
1c01c0
1c01c0
1c01c0
000000
000000
000000
000000
000000
000000
ENDCHAR
STARTCHAR <unknown>
ENCODING 66
SWIDTH 461 0
DWIDTH 18 0
BBX 18 20 0 -6
BITMAP
1ffe00
1ffe00
1c01c0
1c01c0
1c01c0
1c01c0
1ffe00
1ffe00
1c01c0
1c01c0
1c01c0
1c01c0
1ffe00
1ffe00
000000
000000
000000
000000
000000
000000
ENDCHAR
STARTCHAR <unknown>
ENCODING 67
SWIDTH 461 0
DWIDTH 18 0
BBX 18 20 0 -6
BITMAP
03fe00
03fe00
1c01c0
1c01c0
1c0000
1c0000
1c0000
1c0000
1c0000
1c0000
1c01c0
1c01c0
03fe00
03fe00
000000
000000
000000
000000
000000
000000
ENDCHAR
STARTCHAR <unknown>
ENCODING 68
SWIDTH 461 0
DWIDTH 18 0
BBX 18 20 0 -6
BITMAP
1ffe00
1ffe00
0381c0
0381c0
0381c0
0381c0
0381c0
0381c0
0381c0
0381c0
0381c0
0381c0
1ffe00
1ffe00
000000
000000
000000
000000
000000
000000
ENDCHAR
STARTCHAR <unknown>
ENCODING 69
SWIDTH 461 0
DWIDTH 18 0
BBX 18 20 0 -6
BITMAP
1fffc0
1fffc0
1c0000
1c0000
1c0000
1c0000
1ffe00
1ffe00
1c0000
1c0000
1c0000
1c0000
1fffc0
1fffc0
000000
000000
000000
000000
000000
000000
ENDCHAR
STARTCHAR <unknown>
ENCODING 70
SWIDTH 461 0
DWIDTH 18 0
BBX 18 20 0 -6
BITMAP
1fffc0
1fffc0
1c0000
1c0000
1c0000
1c0000
1ffe00
1ffe00
1c0000
1c0000
1c0000
1c0000
1c0000
1c0000
000000
000000
000000
000000
000000
000000
ENDCHAR
STARTCHAR <unknown>
ENCODING 71
SWIDTH 461 0
DWIDTH 18 0
BBX 18 20 0 -6
BITMAP
03fe00
03fe00
1c01c0
1c01c0
1c0000
1c0000
1c0000
1c0000
1c0fc0
1c0fc0
1c01c0
1c01c0
03ffc0
03ffc0
000000
000000
000000
000000
000000
000000
ENDCHAR
STARTCHAR <unknown>
ENCODING 72
SWIDTH 461 0
DWIDTH 18 0
BBX 18 20 0 -6
BITMAP
1c01c0
1c01c0
1c01c0
1c01c0
1c01c0
1c01c0
1fffc0
1fffc0
1c01c0
1c01c0
1c01c0
1c01c0
1c01c0
1c01c0
000000
000000
000000
000000
000000
000000
ENDCHAR
STARTCHAR <unknown>
ENCODING 73
SWIDTH 461 0
DWIDTH 18 0
BBX 18 20 0 -6
BITMAP
03fe00
03fe00
007000
007000
007000
007000
007000
007000
007000
007000
007000
007000
03fe00
03fe00
000000
000000
000000
000000
000000
000000
ENDCHAR
STARTCHAR <unknown>
ENCODING 74
SWIDTH 461 0
DWIDTH 18 0
BBX 18 20 0 -6
BITMAP
0001c0
0001c0
0001c0
0001c0
0001c0
0001c0
0001c0
0001c0
0001c0
0001c0
1c01c0
1c01c0
03fe00
03fe00
000000
000000
000000
000000
000000
000000
ENDCHAR
STARTCHAR <unknown>
ENCODING 75
SWIDTH 461 0
DWIDTH 18 0
BBX 18 20 0 -6
BITMAP
1c01c0
1c01c0
1c0e00
1c0e00
1c7000
1c7000
1f8000
1f8000
1c7000
1c7000
1c0e00
1c0e00
1c01c0
1c01c0
000000
000000
000000
000000
000000
000000
ENDCHAR
STARTCHAR <unknown>
ENCODING 76
SWIDTH 461 0
DWIDTH 18 0
BBX 18 20 0 -6
BITMAP
1c0000
1c0000
1c0000
1c0000
1c0000
1c0000
1c0000
1c0000
1c0000
1c0000
1c0000
1c0000
1fffc0
1fffc0
000000
000000
000000
000000
000000
000000
ENDCHAR
STARTCHAR <unknown>
ENCODING 77
SWIDTH 461 0
DWIDTH 18 0
BBX 18 20 0 -6
BITMAP
1c01c0
1c01c0
1f8fc0
1f8fc0
1c71c0
1c71c0
1c71c0
1c71c0
1c01c0
1c01c0
1c01c0
1c01c0
1c01c0
1c01c0
000000
000000
000000
000000
000000
000000
ENDCHAR
STARTCHAR <unknown>
ENCODING 78
SWIDTH 461 0
DWIDTH 18 0
BBX 18 20 0 -6
BITMAP
1c01c0
1c01c0
1c01c0
1c01c0
1f81c0
1f81c0
1c71c0
1c71c0
1c0fc0
1c0fc0
1c01c0
1c01c0
1c01c0
1c01c0
000000
000000
000000
000000
000000
000000
ENDCHAR
STARTCHAR <unknown>
ENCODING 79
SWIDTH 461 0
DWIDTH 18 0
BBX 18 20 0 -6
BITMAP
03fe00
03fe00
1c01c0
1c01c0
1c01c0
1c01c0
1c01c0
1c01c0
1c01c0
1c01c0
1c01c0
1c01c0
03fe00
03fe00
000000
000000
000000
000000
000000
000000
ENDCHAR
STARTCHAR <unknown>
ENCODING 80
SWIDTH 461 0
DWIDTH 18 0
BBX 18 20 0 -6
BITMAP
1ffe00
1ffe00
1c01c0
1c01c0
1c01c0
1c01c0
1ffe00
1ffe00
1c0000
1c0000
1c0000
1c0000
1c0000
1c0000
000000
000000
000000
000000
000000
000000
ENDCHAR
STARTCHAR <unknown>
ENCODING 81
SWIDTH 461 0
DWIDTH 18 0
BBX 18 20 0 -6
BITMAP
03fe00
03fe00
1c01c0
1c01c0
1c01c0
1c01c0
1c01c0
1c01c0
1c71c0
1c71c0
1c0e00
1c0e00
03f1c0
03f1c0
000000
000000
000000
000000
000000
000000
ENDCHAR
STARTCHAR <unknown>
ENCODING 82
SWIDTH 461 0
DWIDTH 18 0
BBX 18 20 0 -6
BITMAP
1ffe00
1ffe00
1c01c0
1c01c0
1c01c0
1c01c0
1ffe00
1ffe00
1c7000
1c7000
1c0e00
1c0e00
1c01c0
1c01c0
000000
000000
000000
000000
000000
000000
ENDCHAR
STARTCHAR <unknown>
ENCODING 83
SWIDTH 461 0
DWIDTH 18 0
BBX 18 20 0 -6
BITMAP
03fe00
03fe00
1c01c0
1c01c0
1c0000
1c0000
03fe00
03fe00
0001c0
0001c0
1c01c0
1c01c0
03fe00
03fe00
000000
000000
000000
000000
000000
000000
ENDCHAR
STARTCHAR <unknown>
ENCODING 84
SWIDTH 461 0
DWIDTH 18 0
BBX 18 20 0 -6
BITMAP
1fffc0
1fffc0
007000
007000
007000
007000
007000
007000
007000
007000
007000
007000
007000
007000
000000
000000
000000
000000
000000
000000
ENDCHAR
STARTCHAR <unknown>
ENCODING 85
SWIDTH 461 0
DWIDTH 18 0
BBX 18 20 0 -6
BITMAP
1c01c0
1c01c0
1c01c0
1c01c0
1c01c0
1c01c0
1c01c0
1c01c0
1c01c0
1c01c0
1c01c0
1c01c0
03fe00
03fe00
000000
000000
000000
000000
000000
000000
ENDCHAR
STARTCHAR <unknown>
ENCODING 86
SWIDTH 461 0
DWIDTH 18 0
BBX 18 20 0 -6
BITMAP
1c01c0
1c01c0
1c01c0
1c01c0
1c01c0
1c01c0
038e00
038e00
038e00
038e00
007000
007000
007000
007000
000000
000000
000000
000000
000000
000000
ENDCHAR
STARTCHAR <unknown>
ENCODING 87
SWIDTH 461 0
DWIDTH 18 0
BBX 18 20 0 -6
BITMAP
1c01c0
1c01c0
1c01c0
1c01c0
1c01c0
1c01c0
1c71c0
1c71c0
1c71c0
1c71c0
1c71c0
1c71c0
038e00
038e00
000000
000000
000000
000000
000000
000000
ENDCHAR
STARTCHAR <unknown>
ENCODING 88
SWIDTH 461 0
DWIDTH 18 0
BBX 18 20 0 -6
BITMAP
1c01c0
1c01c0
1c01c0
1c01c0
038e00
038e00
007000
007000
038e00
038e00
1c01c0
1c01c0
1c01c0
1c01c0
000000
000000
000000
000000
000000
000000
ENDCHAR
STARTCHAR <unknown>
ENCODING 89
SWIDTH 461 0
DWIDTH 18 0
BBX 18 20 0 -6
BITMAP
1c01c0
1c01c0
1c01c0
1c01c0
038e00
038e00
007000
007000
007000
007000
007000
007000
007000
007000
000000
000000
000000
000000
000000
000000
ENDCHAR
STARTCHAR <unknown>
ENCODING 90
SWIDTH 461 0
DWIDTH 18 0
BBX 18 20 0 -6
BITMAP
1fffc0
1fffc0
0001c0
0001c0
000e00
000e00
007000
007000
038000
038000
1c0000
1c0000
1fffc0
1fffc0
000000
000000
000000
000000
000000
000000
ENDCHAR
STARTCHAR <unknown>
ENCODING 91
SWIDTH 461 0
DWIDTH 18 0
BBX 18 20 0 -6
BITMAP
038e00
038e00
000000
000000
03fe00
03fe00
1c01c0
1c01c0
1fffc0
1fffc0
1c01c0
1c01c0
1c01c0
1c01c0
000000
000000
000000
000000
000000
000000
ENDCHAR
STARTCHAR <unknown>
ENCODING 92
SWIDTH 461 0
DWIDTH 18 0
BBX 18 20 0 -6
BITMAP
038e00
038e00
000000
000000
03fe00
03fe00
1c01c0
1c01c0
1c01c0
1c01c0
1c01c0
1c01c0
03fe00
03fe00
000000
000000
000000
000000
000000
000000
ENDCHAR
STARTCHAR <unknown>
ENCODING 93
SWIDTH 461 0
DWIDTH 18 0
BBX 18 20 0 -6
BITMAP
007000
007000
000000
000000
03fe00
03fe00
1c01c0
1c01c0
1c01c0
1c01c0
1fffc0
1fffc0
1c01c0
1c01c0
000000
000000
000000
000000
000000
000000
ENDCHAR
STARTCHAR <unknown>
ENCODING 94
SWIDTH 461 0
DWIDTH 18 0
BBX 18 20 0 -6
BITMAP
038e00
038e00
000000
000000
1c01c0
1c01c0
1c01c0
1c01c0
1c01c0
1c01c0
1c01c0
1c01c0
03fe00
03fe00
000000
000000
000000
000000
000000
000000
ENDCHAR
STARTCHAR <unknown>
ENCODING 95
SWIDTH 461 0
DWIDTH 18 0
BBX 18 20 0 -6
BITMAP
000000
000000
000000
000000
000000
000000
000000
000000
000000
000000
000000
000000
1fffc0
1fffc0
000000
000000
000000
000000
000000
000000
ENDCHAR
STARTCHAR <unknown>
ENCODING 96
SWIDTH 461 0
DWIDTH 18 0
BBX 18 20 0 -6
BITMAP
000e00
000e00
007000
007000
03fe00
03fe00
1c01c0
1c01c0
1fffc0
1fffc0
1c0000
1c0000
03fe00
03fe00
000000
000000
000000
000000
000000
000000
ENDCHAR
STARTCHAR <unknown>
ENCODING 97
SWIDTH 461 0
DWIDTH 18 0
BBX 18 20 0 -6
BITMAP
000000
000000
000000
000000
03fe00
03fe00
0001c0
0001c0
03ffc0
03ffc0
1c01c0
1c01c0
03ffc0
03ffc0
000000
000000
000000
000000
000000
000000
ENDCHAR
STARTCHAR <unknown>
ENCODING 98
SWIDTH 461 0
DWIDTH 18 0
BBX 18 20 0 -6
BITMAP
1c0000
1c0000
1c0000
1c0000
1ffe00
1ffe00
1c01c0
1c01c0
1c01c0
1c01c0
1c01c0
1c01c0
1ffe00
1ffe00
000000
000000
000000
000000
000000
000000
ENDCHAR
STARTCHAR <unknown>
ENCODING 99
SWIDTH 461 0
DWIDTH 18 0
BBX 18 20 0 -6
BITMAP
000000
000000
000000
000000
03ffc0
03ffc0
1c0000
1c0000
1c0000
1c0000
1c0000
1c0000
03ffc0
03ffc0
000000
000000
000000
000000
000000
000000
ENDCHAR
STARTCHAR <unknown>
ENCODING 100
SWIDTH 461 0
DWIDTH 18 0
BBX 18 20 0 -6
BITMAP
0001c0
0001c0
0001c0
0001c0
03ffc0
03ffc0
1c01c0
1c01c0
1c01c0
1c01c0
1c01c0
1c01c0
03ffc0
03ffc0
000000
000000
000000
000000
000000
000000
ENDCHAR
STARTCHAR <unknown>
ENCODING 101
SWIDTH 461 0
DWIDTH 18 0
BBX 18 20 0 -6
BITMAP
000000
000000
000000
000000
03fe00
03fe00
1c01c0
1c01c0
1fffc0
1fffc0
1c0000
1c0000
03fe00
03fe00
000000
000000
000000
000000
000000
000000
ENDCHAR
STARTCHAR <unknown>
ENCODING 102
SWIDTH 461 0
DWIDTH 18 0
BBX 18 20 0 -6
BITMAP
000e00
000e00
007000
007000
007000
007000
03fe00
03fe00
007000
007000
007000
007000
007000
007000
000000
000000
000000
000000
000000
000000
ENDCHAR
STARTCHAR <unknown>
ENCODING 103
SWIDTH 461 0
DWIDTH 18 0
BBX 18 20 0 -6
BITMAP
000000
000000
000000
000000
03fe00
03fe00
1c01c0
1c01c0
1c01c0
1c01c0
1c01c0
1c01c0
03ffc0
03ffc0
0001c0
0001c0
03fe00
03fe00
000000
000000
ENDCHAR
STARTCHAR <unknown>
ENCODING 104
SWIDTH 461 0
DWIDTH 18 0
BBX 18 20 0 -6
BITMAP
1c0000
1c0000
1c0000
1c0000
1ffe00
1ffe00
1c01c0
1c01c0
1c01c0
1c01c0
1c01c0
1c01c0
1c01c0
1c01c0
000000
000000
000000
000000
000000
000000
ENDCHAR
STARTCHAR <unknown>
ENCODING 105
SWIDTH 461 0
DWIDTH 18 0
BBX 18 20 0 -6
BITMAP
007000
007000
000000
000000
03f000
03f000
007000
007000
007000
007000
007000
007000
03fe00
03fe00
000000
000000
000000
000000
000000
000000
ENDCHAR
STARTCHAR <unknown>
ENCODING 106
SWIDTH 461 0
DWIDTH 18 0
BBX 18 20 0 -6
BITMAP
007000
007000
000000
000000
03f000
03f000
007000
007000
007000
007000
007000
007000
007000
007000
007000
007000
038000
038000
000000
000000
ENDCHAR
STARTCHAR <unknown>
ENCODING 107
SWIDTH 461 0
DWIDTH 18 0
BBX 18 20 0 -6
BITMAP
1c0000
1c0000
1c0000
1c0000
1c0e00
1c0e00
1c7000
1c7000
1f8000
1f8000
1c7000
1c7000
1c0e00
1c0e00
000000
000000
000000
000000
000000
000000
ENDCHAR
STARTCHAR <unknown>
ENCODING 108
SWIDTH 461 0
DWIDTH 18 0
BBX 18 20 0 -6
BITMAP
03f000
03f000
007000
007000
007000
007000
007000
007000
007000
007000
007000
007000
03fe00
03fe00
000000
000000
000000
000000
000000
000000
ENDCHAR
STARTCHAR <unknown>
ENCODING 109
SWIDTH 461 0
DWIDTH 18 0
BBX 18 20 0 -6
BITMAP
000000
000000
000000
000000
1f8e00
1f8e00
1c71c0
1c71c0
1c71c0
1c71c0
1c71c0
1c71c0
1c01c0
1c01c0
000000
000000
000000
000000
000000
000000
ENDCHAR
STARTCHAR <unknown>
ENCODING 110
SWIDTH 461 0
DWIDTH 18 0
BBX 18 20 0 -6
BITMAP
000000
000000
000000
000000
1ffe00
1ffe00
1c01c0
1c01c0
1c01c0
1c01c0
1c01c0
1c01c0
1c01c0
1c01c0
000000
000000
000000
000000
000000
000000
ENDCHAR
STARTCHAR <unknown>
ENCODING 111
SWIDTH 461 0
DWIDTH 18 0
BBX 18 20 0 -6
BITMAP
000000
000000
000000
000000
03fe00
03fe00
1c01c0
1c01c0
1c01c0
1c01c0
1c01c0
1c01c0
03fe00
03fe00
000000
000000
000000
000000
000000
000000
ENDCHAR
STARTCHAR <unknown>
ENCODING 112
SWIDTH 461 0
DWIDTH 18 0
BBX 18 20 0 -6
BITMAP
000000
000000
000000
000000
1ffe00
1ffe00
1c01c0
1c01c0
1c01c0
1c01c0
1c01c0
1c01c0
1ffe00
1ffe00
1c0000
1c0000
1c0000
1c0000
000000
000000
ENDCHAR
STARTCHAR <unknown>
ENCODING 113
SWIDTH 461 0
DWIDTH 18 0
BBX 18 20 0 -6
BITMAP
000000
000000
000000
000000
03ffc0
03ffc0
1c01c0
1c01c0
1c01c0
1c01c0
1c01c0
1c01c0
03ffc0
03ffc0
0001c0
0001c0
0001c0
0001c0
000000
000000
ENDCHAR
STARTCHAR <unknown>
ENCODING 114
SWIDTH 461 0
DWIDTH 18 0
BBX 18 20 0 -6
BITMAP
000000
000000
000000
000000
038fc0
038fc0
03f000
03f000
038000
038000
038000
038000
038000
038000
000000
000000
000000
000000
000000
000000
ENDCHAR
STARTCHAR <unknown>
ENCODING 115
SWIDTH 461 0
DWIDTH 18 0
BBX 18 20 0 -6
BITMAP
000000
000000
000000
000000
03ffc0
03ffc0
1c0000
1c0000
03fe00
03fe00
0001c0
0001c0
1ffe00
1ffe00
000000
000000
000000
000000
000000
000000
ENDCHAR
STARTCHAR <unknown>
ENCODING 116
SWIDTH 461 0
DWIDTH 18 0
BBX 18 20 0 -6
BITMAP
000000
000000
007000
007000
03fe00
03fe00
007000
007000
007000
007000
007000
007000
000e00
000e00
000000
000000
000000
000000
000000
000000
ENDCHAR
STARTCHAR <unknown>
ENCODING 117
SWIDTH 461 0
DWIDTH 18 0
BBX 18 20 0 -6
BITMAP
000000
000000
000000
000000
1c01c0
1c01c0
1c01c0
1c01c0
1c01c0
1c01c0
1c01c0
1c01c0
03ffc0
03ffc0
000000
000000
000000
000000
000000
000000
ENDCHAR
STARTCHAR <unknown>
ENCODING 118
SWIDTH 461 0
DWIDTH 18 0
BBX 18 20 0 -6
BITMAP
000000
000000
000000
000000
1c01c0
1c01c0
1c01c0
1c01c0
038e00
038e00
038e00
038e00
007000
007000
000000
000000
000000
000000
000000
000000
ENDCHAR
STARTCHAR <unknown>
ENCODING 119
SWIDTH 461 0
DWIDTH 18 0
BBX 18 20 0 -6
BITMAP
000000
000000
000000
000000
1c01c0
1c01c0
1c01c0
1c01c0
1c01c0
1c01c0
1c71c0
1c71c0
038e00
038e00
000000
000000
000000
000000
000000
000000
ENDCHAR
STARTCHAR <unknown>
ENCODING 120
SWIDTH 461 0
DWIDTH 18 0
BBX 18 20 0 -6
BITMAP
000000
000000
000000
000000
1c01c0
1c01c0
038e00
038e00
007000
007000
038e00
038e00
1c01c0
1c01c0
000000
000000
000000
000000
000000
000000
ENDCHAR
STARTCHAR <unknown>
ENCODING 121
SWIDTH 461 0
DWIDTH 18 0
BBX 18 20 0 -6
BITMAP
000000
000000
000000
000000
1c01c0
1c01c0
1c01c0
1c01c0
1c01c0
1c01c0
1c01c0
1c01c0
03ffc0
03ffc0
0001c0
0001c0
03fe00
03fe00
000000
000000
ENDCHAR
STARTCHAR <unknown>
ENCODING 122
SWIDTH 461 0
DWIDTH 18 0
BBX 18 20 0 -6
BITMAP
000000
000000
000000
000000
1fffc0
1fffc0
000e00
000e00
007000
007000
038000
038000
1fffc0
1fffc0
000000
000000
000000
000000
000000
000000
ENDCHAR
STARTCHAR <unknown>
ENCODING 123
SWIDTH 461 0
DWIDTH 18 0
BBX 18 20 0 -6
BITMAP
038e00
038e00
000000
000000
03fe00
03fe00
0001c0
0001c0
03ffc0
03ffc0
1c01c0
1c01c0
03ffc0
03ffc0
000000
000000
000000
000000
000000
000000
ENDCHAR
STARTCHAR <unknown>
ENCODING 124
SWIDTH 461 0
DWIDTH 18 0
BBX 18 20 0 -6
BITMAP
000000
000000
038e00
038e00
000000
000000
03fe00
03fe00
1c01c0
1c01c0
1c01c0
1c01c0
03fe00
03fe00
000000
000000
000000
000000
000000
000000
ENDCHAR
STARTCHAR <unknown>
ENCODING 125
SWIDTH 461 0
DWIDTH 18 0
BBX 18 20 0 -6
BITMAP
007000
007000
000000
000000
03fe00
03fe00
0001c0
0001c0
03ffc0
03ffc0
1c01c0
1c01c0
03ffc0
03ffc0
000000
000000
000000
000000
000000
000000
ENDCHAR
STARTCHAR <unknown>
ENCODING 126
SWIDTH 461 0
DWIDTH 18 0
BBX 18 20 0 -6
BITMAP
000000
000000
038e00
038e00
000000
000000
1c01c0
1c01c0
1c01c0
1c01c0
1c01c0
1c01c0
03ffc0
03ffc0
000000
000000
000000
000000
000000
000000
ENDCHAR
STARTCHAR <unknown>
ENCODING 127
SWIDTH 461 0
DWIDTH 18 0
BBX 18 20 0 -6
BITMAP
1fffc0
1fffc0
1fffc0
1fffc0
1fffc0
1fffc0
1fffc0
1fffc0
1fffc0
1fffc0
1fffc0
1fffc0
1fffc0
1fffc0
000000
000000
000000
000000
000000
000000
ENDCHAR
ENDFONT
